<svg width="223" height="64" viewBox="0 0 223 64" fill="none" xmlns="http://www.w3.org/2000/svg">
<g clip-path="url(#clip0_13_263)">
<path d="M67.3374 31.5268C67.356 31.6203 67.363 31.6576 67.3723 31.695C67.5493 32.6459 67.1674 33.2603 66.3662 33.8069C63.907 35.4843 61.2429 36.2693 58.2806 35.8581C55.2555 35.4376 53.3412 33.5243 52.8685 30.4615C52.7311 29.5621 52.6635 28.644 52.6752 27.7352C52.7311 22.9156 52.8219 18.0961 52.8987 13.2765C52.8987 13.162 52.8987 13.0452 52.8987 12.8887H50.2299C50.2462 13.2344 50.2811 13.5615 50.2765 13.8886C50.2416 16.3276 48.0664 17.8251 45.7842 16.9537C45.3045 16.7714 44.8713 16.4537 44.4428 16.1617C44.0586 15.9 43.7255 15.5683 43.3459 15.2973C42.6729 14.816 42.0698 14.9469 41.7647 15.7201C41.5411 16.2878 41.3665 16.9186 41.3595 17.5237C41.3059 21.8386 41.2454 26.1536 41.3059 30.4662C41.3362 32.6365 42.1955 33.3794 44.359 33.5266C44.4521 33.5336 44.5453 33.55 44.6641 33.5663V34.8839H28.7979V33.564C28.9912 33.5476 29.1798 33.5266 29.3684 33.5149C30.7541 33.4191 31.5459 32.7206 31.7694 31.3493C31.8463 30.8727 31.8859 30.3844 31.8882 29.9008C31.8975 26.8871 31.8649 23.8758 31.9068 20.8621C31.9255 19.5141 31.476 18.5119 30.3046 17.7923C29.3498 17.206 28.4648 16.5098 27.4751 15.8089C32.0489 14.1479 36.2757 11.9215 40.6003 9.71846V13.7554C40.6352 13.7718 40.6701 13.7881 40.7051 13.8021C40.8378 13.6059 40.9706 13.4073 41.1056 13.2134C41.923 12.0336 42.8639 10.987 44.196 10.3726C46.5341 9.2886 48.7628 9.99647 50.0925 12.3C54.0538 8.4686 58.0012 4.6536 62.0649 0.724121V10.973C64.1236 11.0221 66.1054 11.0501 68.1105 10.3165C67.845 11.2183 67.6075 12.0243 67.3606 12.856H62.0766C62.0766 13.1013 62.0766 13.3069 62.0766 13.5148C62.0766 17.519 62.0463 21.5232 62.0952 25.5275C62.1115 26.7797 62.2116 28.0622 62.4981 29.2771C63.0663 31.6857 64.6243 32.459 66.9647 31.653C67.0719 31.6156 67.1813 31.5852 67.3397 31.5362L67.3374 31.5268Z" fill="white"/>
<path d="M183.51 33.5547V34.8677H168.142V33.5711C168.28 33.5501 168.389 33.5267 168.501 33.5197C170.285 33.4029 171.088 32.6133 171.209 30.8261C171.244 30.3215 171.244 29.8168 171.244 29.3099C171.247 26.5111 171.205 23.71 171.263 20.9136C171.293 19.5119 170.832 18.4886 169.623 17.7504C168.685 17.1757 167.814 16.4912 166.833 15.7997C171.335 14.1363 175.56 12.0828 179.761 9.70923V13.7742C180.003 13.5172 180.133 13.3934 180.252 13.2556C182.495 10.6367 185.38 9.69521 188.738 9.99424C190.329 10.1368 191.838 10.5246 193.086 11.5899C194.742 13.0033 195.333 14.9259 195.406 16.9958C195.501 19.7128 195.462 22.4368 195.473 25.1585C195.48 26.8288 195.45 28.5016 195.492 30.1719C195.538 32.0269 195.816 33.4426 198.559 33.5688V34.8817H186.109V34.1855C186.109 28.9571 186.125 23.7287 186.093 18.5003C186.086 17.5004 185.974 16.4795 185.75 15.5053C185.469 14.2765 184.623 13.7532 183.28 13.7578C182.045 13.7625 181.298 14.2741 180.981 15.4796C180.79 16.2038 180.662 16.9701 180.657 17.7177C180.627 21.9158 180.639 26.114 180.643 30.3121C180.643 30.6392 180.69 30.9709 180.746 31.2957C180.988 32.695 181.698 33.3492 183.119 33.501C183.233 33.5127 183.345 33.5314 183.512 33.5524L183.51 33.5547Z" fill="white"/>
<path d="M26.4785 31.6555C26.8068 32.8166 26.3527 33.6062 25.4235 34.2416C23.1902 35.7695 20.7822 36.1293 18.2252 35.3303C16.8465 34.8981 15.8894 33.9146 15.2536 32.618C15.1348 32.3774 15.0277 32.1297 14.9136 31.8821C14.5899 32.1835 14.2755 32.4591 13.9774 32.7511C11.7697 34.9168 9.19172 36.1316 6.03385 35.9541C3.12516 35.7929 0.693885 33.9403 0.15593 31.3448C-0.370382 28.8006 0.447031 26.6724 2.31241 24.9226C3.94956 23.3853 5.9407 22.4041 7.95046 21.4837C9.93927 20.5749 11.97 19.7502 13.9914 18.9115C14.3267 18.7714 14.4758 18.6102 14.4478 18.2364C14.35 16.9211 14.3943 15.5848 14.1684 14.2929C13.8074 12.2183 12.0468 11.3283 10.1419 12.1529C9.09158 12.6085 8.4791 13.4051 8.48609 14.5943C8.49075 15.6222 8.5839 16.6571 8.50705 17.6804C8.33704 19.9395 6.51359 21.3108 4.29656 20.93C2.62447 20.6403 1.59746 19.2176 1.6813 17.4094C1.79308 14.9751 3.05064 13.2603 4.99753 11.9707C7.41949 10.3681 10.1419 9.90552 12.983 9.90552C14.562 9.90552 16.1153 10.0807 17.636 10.5176C21.7743 11.7067 23.628 14.0429 23.7282 18.3579C23.7957 21.2524 23.7235 24.1516 23.7724 27.0462C23.791 28.1278 23.975 29.2071 24.0915 30.2865C24.1078 30.4383 24.1683 30.5878 24.2219 30.7327C24.6457 31.8494 25.3723 32.1531 26.4785 31.6601V31.6555ZM14.548 20.4908C12.9737 21.1356 11.8699 22.014 11.113 23.2896C10.0604 25.0627 9.79022 27.0041 10.0627 29.0132C10.1349 29.5459 10.4167 30.0762 10.7008 30.5481C11.0431 31.1205 11.6207 31.3494 12.2914 31.3284C13.4115 31.2934 14.1078 30.6976 14.187 29.394C14.364 26.4738 14.4315 23.5465 14.5503 20.4885L14.548 20.4908Z" fill="white"/>
<path d="M142.947 12.3585V11.0152H151.608V12.3655C149.715 12.6856 148.639 14.0149 147.884 15.6268C145.083 21.6192 142.325 27.6325 139.552 33.6389C139.212 34.3771 138.869 35.113 138.474 35.9657C135.956 31.2746 133.49 26.6747 130.954 21.9462C128.627 26.6467 126.345 31.256 124.023 35.9517C123.898 35.7064 123.802 35.5335 123.716 35.3536C120.619 29.0296 117.524 22.7032 114.419 16.3814C114.086 15.7039 113.721 15.0381 113.327 14.3933C112.607 13.2112 111.674 12.3305 110.144 12.3725V11.0315H126.496V12.3468C126.159 12.4029 125.835 12.4403 125.516 12.5127C124.587 12.7183 124.165 13.3187 124.333 14.2625C124.41 14.697 124.552 15.1316 124.736 15.5334C125.863 18.0051 127.011 20.4651 128.152 22.9298C128.185 22.9975 128.231 23.0583 128.318 23.1961C130.56 18.8251 132.775 14.5078 135.039 10.0947C137.426 14.5055 139.761 18.8274 142.165 23.2685C143.294 20.6193 144.419 18.1266 145.423 15.5871C146.163 13.7112 145.497 12.7066 143.494 12.4192C143.324 12.3959 143.152 12.3819 142.943 12.3608L142.947 12.3585Z" fill="white"/>
<path d="M80.4723 16.9095C79.8272 16.5147 79.1588 16.1666 78.558 15.725C77.0187 14.592 75.9171 13.1318 75.668 11.1881C75.3536 8.72813 76.6693 6.46669 79.0471 5.27056C81.0359 4.27067 83.1621 4.10246 85.3395 4.29403C86.9697 4.43654 88.4415 4.96218 89.6431 6.11393C90.5048 6.94094 91.0195 7.94083 91.0358 9.15331C91.0544 10.5457 90.0786 11.6203 88.6697 11.7932C87.2701 11.9638 86.0405 11.1975 85.7447 9.97098C85.414 8.59496 86.1499 7.23997 87.496 6.75872C87.7312 6.67461 87.9734 6.61854 88.3763 6.50173C88.0572 6.19336 87.8383 5.90367 87.5542 5.71911C84.0796 3.43198 79.1146 5.86863 78.7839 9.99901C78.5929 12.3889 79.1751 14.4985 80.8845 16.2437C81.1616 16.5263 81.4224 16.5871 81.8067 16.5497C82.8267 16.4492 83.8537 16.3581 84.8761 16.3605C85.8542 16.3605 86.4224 16.8814 86.3525 17.5566C86.2897 18.1477 85.6376 18.5682 84.7317 18.393C83.7722 18.2084 82.8337 17.8743 81.9115 17.5402C81.483 17.3837 81.115 17.3534 80.6912 17.5169C78.3624 18.421 76.3037 19.6662 75.4048 22.1612C74.2287 25.4202 74.6456 30.1183 78.2855 33.1133C80.3722 34.8304 82.7895 35.7509 85.428 36.1083C88.9934 36.5896 92.4703 36.2602 95.7796 34.758C97.4097 34.0174 98.8257 32.9801 99.9016 31.5224C102.745 27.6723 101.127 21.8856 96.6948 20.096C96.4479 19.9956 96.1126 19.9746 95.8634 20.0563C93.9841 20.6637 92.0931 21.2454 90.2556 21.965C89.2752 22.3481 88.3297 22.8971 87.4843 23.5279C85.7983 24.7848 85.6795 27.149 87.1606 28.6442C88.7652 30.2631 91.0381 30.5435 93.1387 29.6557C93.3553 29.5646 93.5253 29.3684 93.7954 29.1581C93.4135 28.9993 93.1317 28.8965 92.8616 28.7656C91.6296 28.1699 91.1872 27.2565 91.4596 25.9015C91.6785 24.8175 92.6496 24.0138 93.835 23.9344C94.9226 23.862 95.8657 24.1563 96.4037 25.1656C97.0232 26.329 96.9486 27.5485 96.1498 28.5694C95.6538 29.2025 94.9598 29.7679 94.2379 30.1253C92.1909 31.1392 90.0647 31.2046 87.9431 30.2865C84.6315 28.8544 83.5649 24.5021 85.7843 21.4487C86.8858 19.9372 88.4112 18.949 90.1275 18.3462C92.6823 17.4491 95.3022 16.7389 97.8732 15.8839C99.9644 15.1877 102.044 14.4425 104.086 13.6178C104.915 13.2837 105.703 12.7557 106.394 12.1787C108.458 10.4522 108.541 7.65815 106.632 5.77051C105.249 4.4015 103.558 3.86417 101.641 4.01369C101.338 4.03705 101.047 4.1889 100.598 4.32908C101.469 4.86173 101.939 5.48082 102.065 6.31718C102.344 8.18847 100.451 9.64859 98.5159 9.05286C97.61 8.77251 96.8951 8.25388 96.7344 7.25399C96.5644 6.19803 96.7763 5.24486 97.6706 4.53466C98.5672 3.82212 99.6198 3.51141 100.724 3.35255C102.405 3.11192 104.061 3.21471 105.623 3.93192C108.695 5.34298 109.815 7.93616 109.322 11.2722C108.884 14.2252 106.876 15.9913 104.329 17.1127C102.296 18.0075 100.144 18.6289 98.0455 19.3695C97.8639 19.4326 97.6775 19.484 97.3795 19.5774C97.6426 19.7129 97.8196 19.8087 98.0013 19.8975C100.812 21.2688 102.282 23.6167 102.643 26.6374C103.213 31.4102 101.04 34.8888 97.2095 37.4516C93.9421 39.636 90.2417 40.1499 86.4131 39.977C83.1504 39.8299 80.0484 39.0449 77.2399 37.3278C74.4989 35.6504 72.4099 33.4053 71.702 30.1627C70.5399 24.8385 72.8268 20.3413 77.8407 17.9935C78.6954 17.594 79.5873 17.2716 80.463 16.9141L80.4723 16.9095Z" fill="white"/>
<path d="M222.898 28.7164C222.898 29.422 222.907 30.0738 222.891 30.7256C222.888 30.8447 222.807 30.9802 222.725 31.0783C218.014 36.7296 210.185 37.4281 205.089 33.543C202.078 31.2489 200.464 28.1511 200.217 24.3805C199.94 20.1146 201.161 16.344 204.23 13.2999C207.621 9.93579 213.128 8.91487 217.392 10.8703C220.711 12.3911 222.397 15.1362 222.881 18.6895C222.947 19.1684 222.963 19.6567 222.998 20.1403C223.007 20.2547 222.998 20.3692 222.998 20.5514H208.936C208.953 21.9905 209.188 23.3198 209.719 24.5767C210.983 27.567 213.049 29.7117 216.296 30.4639C218.685 31.0176 220.883 30.6321 222.693 28.8239C222.728 28.7889 222.784 28.7748 222.9 28.7164H222.898ZM208.883 18.7619C209.98 18.9558 213.524 18.811 214.491 18.568C215.206 18.3881 215.648 17.9443 215.79 17.2341C216.051 15.9094 215.974 14.6035 215.441 13.3536C215.071 12.4892 214.402 11.9613 213.473 11.8071C211.608 11.4964 210.189 12.3117 209.526 14.0895C208.964 15.587 208.885 17.1546 208.888 18.7619H208.883Z" fill="white"/>
<path d="M166.552 33.5501V34.8701H151.233V33.5571C151.44 33.5408 151.629 33.5221 151.818 33.5081C153.198 33.4123 153.988 32.7068 154.209 31.3331C154.286 30.8565 154.323 30.3682 154.326 29.8846C154.335 26.4831 154.305 23.084 154.344 19.6825C154.358 18.4466 153.946 17.5192 152.947 16.7903C152.06 16.1408 151.228 15.4143 150.376 14.7228C154.817 13.0757 159.216 11.4451 163.69 9.78638V10.4685C163.69 16.8417 163.685 23.2148 163.697 29.5879C163.697 30.1883 163.722 30.7981 163.834 31.3845C164.095 32.7418 164.787 33.3422 166.158 33.5034C166.27 33.5174 166.384 33.5314 166.552 33.5525V33.5501Z" fill="white"/>
<path d="M163.438 4.90133C163.434 7.65337 161.266 9.81668 158.532 9.79799C155.814 9.7793 153.671 7.63 153.662 4.90834C153.653 2.16565 155.812 0 158.56 0C161.343 0 163.443 2.10958 163.438 4.90133Z" fill="white"/>
<path d="M127.7 50.5132V59.7061H126.564V48.3663C127.111 48.2401 127.528 48.3032 127.938 48.8288C130.108 51.6136 132.328 54.3633 134.531 57.1246C134.65 57.2718 134.773 57.4143 134.992 57.676V48.3499H136.135V59.7085C135.583 59.8229 135.141 59.7739 134.717 59.2342C132.549 56.4705 130.334 53.7442 128.134 51.0062C128.029 50.8753 127.912 50.7562 127.698 50.5132H127.7Z" fill="white"/>
<path d="M143.983 59.7317V48.4222C144.023 48.3872 144.051 48.3381 144.081 48.3381C145.728 48.3591 147.386 48.261 149.016 48.4362C152.015 48.761 154.025 51.1532 153.934 54.0851C153.839 57.1969 151.722 59.5145 148.674 59.7154C147.134 59.8158 145.583 59.7341 143.983 59.7341V59.7317ZM145.18 49.4081V58.5706C146.482 58.5706 147.77 58.7015 149.021 58.5403C151.07 58.2763 152.563 56.4914 152.7 54.3982C152.847 52.1578 151.708 50.3706 149.677 49.6978C148.206 49.2118 146.692 49.4782 145.183 49.4081H145.18Z" fill="white"/>
<path d="M104.624 53.5316H110.602V54.6016H104.627V58.6853H111.271V59.7085H103.418V48.3523H111.25V49.3779H104.624V53.5316Z" fill="white"/>
<path d="M112.934 59.706C113.709 57.9866 114.457 56.3279 115.202 54.6692C116.108 52.6531 117.025 50.6439 117.908 48.6185C118.073 48.24 118.318 48.2213 118.644 48.2283C118.956 48.2353 119.219 48.212 119.391 48.5974C121.008 52.2279 122.645 55.8466 124.273 59.4701C124.303 59.5378 124.31 59.6149 124.326 59.6897C123.194 59.8906 123.187 59.8859 122.75 58.9024C122.442 58.2109 122.123 57.5264 121.837 56.8278C121.716 56.5311 121.543 56.433 121.224 56.4354C119.501 56.4494 117.775 56.4307 116.052 56.4587C115.863 56.4611 115.593 56.6433 115.505 56.8162C115.169 57.4703 114.897 58.1571 114.599 58.83C114.299 59.5059 113.745 59.7979 112.936 59.706H112.934ZM116.168 55.2906H121.143C120.309 53.4123 119.503 51.5948 118.648 49.6721C117.801 51.5948 116.993 53.424 116.168 55.2906Z" fill="white"/>
<path d="M70.7097 58.9888C70.6934 59.2645 70.6794 59.4724 70.6655 59.7177H69.6035V47.8708H70.6771V52.8259C71.9626 51.833 73.2924 51.548 74.7316 51.9872C75.6328 52.2629 76.3361 52.8306 76.8508 53.6249C77.8918 55.2369 77.6961 57.3535 76.3827 58.7295C74.9295 60.248 72.9873 60.3531 70.712 58.9865L70.7097 58.9888ZM70.6864 55.8396C70.6864 56.1503 70.7237 56.4657 70.6794 56.7694C70.5723 57.4866 70.9403 57.9422 71.4596 58.3347C72.5052 59.1243 73.9863 59.164 75.0483 58.4304C76.1242 57.6852 76.6063 56.3349 76.2546 55.043C75.8983 53.737 74.8177 52.8376 73.4833 52.7815C72.617 52.7465 71.8788 53.0619 71.2011 53.6202C70.6026 54.1132 70.6864 54.7393 70.6864 55.3724C70.6864 55.5266 70.6864 55.6831 70.6864 55.8373V55.8396Z" fill="white"/>
<path d="M80.4581 63.9999C80.9332 62.9533 81.2895 62.0352 81.7576 61.1755C82.1372 60.4793 82.1186 59.9116 81.7483 59.1944C80.6374 57.0427 79.6174 54.842 78.5625 52.66C78.4716 52.4731 78.3901 52.2839 78.2993 52.0853C79.3496 51.8611 79.4311 51.8984 79.8387 52.7348C80.7283 54.5664 81.6155 56.398 82.5075 58.2295C82.5913 58.4024 82.6821 58.5683 82.8102 58.8182C83.4763 57.3535 84.105 55.9658 84.7361 54.5781C85.0016 53.9963 85.2671 53.4123 85.5303 52.8306C85.8113 52.2123 86.3197 51.9537 87.0556 52.055C87.0067 52.1998 86.9741 52.3447 86.9136 52.4755C85.2462 56.148 83.5624 59.8111 81.9183 63.493C81.5899 64.2265 81.0403 63.7827 80.4581 63.9999Z" fill="white"/>
<path d="M92.1742 56.5265H93.3107C93.3456 56.6317 93.3852 56.7391 93.4178 56.8466C93.8556 58.2693 95.0247 59.0449 96.5244 58.9024C97.9287 58.7693 98.979 57.732 99.0465 56.2368C99.1257 54.473 99.0908 52.7022 99.1001 50.9337C99.1047 50.0833 99.1001 49.2306 99.1001 48.3499H100.292C100.302 48.5414 100.318 48.7307 100.318 48.9175C100.318 51.0949 100.325 53.2699 100.313 55.4449C100.313 55.8887 100.276 56.3396 100.204 56.7788C99.8919 58.7179 98.4294 59.9397 96.38 59.9981C94.2468 60.0565 92.6702 58.9258 92.2301 57.0148C92.1952 56.8676 92.1952 56.7134 92.1719 56.5242L92.1742 56.5265Z" fill="white"/>
</g>
<defs>
<clipPath id="clip0_13_263">
<rect width="223" height="64" fill="white"/>
</clipPath>
</defs>
</svg>
